<?xml version="1.0"?>
<svg width="600" height="600" xmlns="http://www.w3.org/2000/svg" preserveAspectRatio="xMidYMid meet">
 <metadata>Created by potrace 1.12, written by Peter Selinger 2001-2015</metadata>
 <defs>
  <linearGradient y2="0.855469" x2="0.789063" y1="0.203125" x1="0.234375" id="svg_14">
   <stop offset="0" stop-opacity="0.996094" stop-color="#000fef"/>
   <stop offset="0.449219" stop-opacity="0.996094" stop-color="#37ad0f"/>
   <stop offset="1" stop-opacity="0.996094" stop-color="#56ff56"/>
   <stop offset="1" stop-color="#NaNNaNNaN"/>
  </linearGradient>
 </defs>
 <g>
  <title>background</title>
  <rect fill="none" id="canvas_background" height="602" width="602" y="-1" x="-1"/>
 </g>
 <g>
  <title>Layer 1</title>
  <path id="svg_11" d="m299.333344,591.333313c0,0 14.666656,-22.666626 14.666656,-22.666626c0,0 22.666656,-14.666687 22,-15.333374c0.666656,0.666687 70,-3.333313 69.333344,-4c0.666656,0.666687 63.333313,0.666687 62.666656,0c0.666656,0.666687 22,-7.333313 22,-7.333313c0,0 26.666687,-24 26.666687,-24c0,0 10.666626,-36 10,-36.666656c0.666626,0.666656 2,-474.00001 2,-474.00001c0,0 -457.333351,0 -457.333351,0c0,0 0,466.666667 0,466.666667c0,0 5.333328,28 5.333328,28c0,0 13.333336,22.666687 13.333336,22.666687c0,0 14.666664,14.666626 14.666664,14.666626c0,0 22.666672,8 22,7.333374c0.666672,0.666626 52.666664,3.333313 52.000008,2.666626c0.666656,0.666687 76.666656,3.333374 76.666656,3.333374c0,0 22.666672,9.333313 22.000015,8.666626c0.666656,0.666687 15.333313,14 15.333313,14c0,0 6.666687,16 6.666687,16z" fill-opacity="0.79" stroke-opacity="null" stroke-width="1.5" stroke="#000" fill="url(#svg_14)"/>
  <g id="svg_1" fill="#000000" transform="translate(0,600) scale(0.10000000149011612,-0.10000000149011612) ">
   <path id="svg_2" d="m684,5937c-2,-7 -3,-1057 -1,-2333c2,-1752 6,-2338 15,-2396c64,-406 230,-624 541,-711c72,-20 106,-21 676,-27c573,-6 604,-7 678,-28c171,-47 295,-141 362,-274c19,-39 35,-77 35,-84c0,-8 5,-14 10,-14c6,0 10,6 10,14c0,7 16,45 35,84c67,133 191,227 362,274c74,21 105,22 678,28c570,6 604,7 676,27c315,88 485,316 541,726c10,72 13,601 13,2407l0,2315l-2313,3c-1892,2 -2314,0 -2318,-11zm4593,-2349c-2,-2169 -4,-2329 -20,-2418c-55,-295 -175,-483 -369,-578c-156,-77 -133,-74 -798,-82c-629,-8 -649,-9 -777,-58c-122,-47 -225,-133 -278,-235c-17,-31 -32,-57 -35,-57c-3,0 -18,26 -35,57c-53,102 -156,188 -278,235c-128,49 -148,50 -777,58c-665,8 -642,5 -798,82c-194,95 -314,283 -369,578c-16,89 -18,249 -20,2418l-3,2322l2280,0l2280,0l-3,-2322z"/>
   <path id="svg_3" d="m1882,5440c-39,-24 -87,-97 -108,-165c-9,-27 -29,-153 -45,-280c-32,-257 -39,-293 -81,-450c-27,-102 -30,-129 -38,-360l-8,-250l-47,-150c-41,-131 -47,-162 -49,-245c-1,-85 2,-101 27,-152c78,-159 279,-255 514,-246c93,4 109,8 176,41c94,46 166,117 209,204c30,63 33,75 33,163c-1,89 -4,105 -58,260c-62,176 -60,168 -86,515c-10,129 -10,131 -60,226c-27,52 -54,114 -61,138c-6,24 -20,168 -29,320c-20,295 -29,340 -84,400c-48,52 -145,67 -205,31zm155,-95c31,-35 43,-86 43,-180c0,-166 20,-401 40,-479c11,-44 20,-80 20,-82c0,-1 -17,2 -37,7c-68,16 -203,10 -263,-11c-30,-11 -58,-19 -62,-20c-4,0 0,21 8,48c10,30 19,122 25,252c14,291 22,362 51,418c41,81 125,104 175,47z"/>
   <path id="svg_4" d="m3895,5428c-78,-68 -104,-152 -144,-473c-21,-163 -44,-291 -71,-399c-39,-155 -40,-164 -40,-332c0,-215 -11,-295 -62,-454c-37,-112 -41,-136 -42,-230c-1,-95 1,-110 25,-155c33,-63 119,-145 188,-180c170,-86 399,-87 544,-2c60,36 145,130 176,197c21,47 25,69 24,145c-1,96 -9,130 -82,336c-40,113 -41,120 -52,310c-12,222 -23,279 -73,367c-61,109 -67,136 -87,437c-10,154 -23,295 -29,314c-27,94 -99,151 -189,151c-42,0 -56,-5 -86,-32zm172,-82c28,-33 43,-107 43,-219c1,-161 18,-370 38,-444c11,-40 18,-74 15,-76c-2,-3 -21,-1 -41,4c-66,15 -186,10 -253,-11c-35,-10 -64,-18 -65,-17c-1,1 6,36 15,77c13,52 20,139 25,285c8,232 18,303 50,361c40,73 126,92 173,40z"/>
   <path id="svg_5" d="m2910,3222c-48,-24 -92,-86 -118,-165c-14,-42 -34,-162 -52,-312c-22,-176 -41,-288 -70,-400c-37,-144 -40,-165 -40,-293c0,-228 -14,-343 -61,-488c-50,-159 -62,-289 -34,-373c20,-61 103,-156 169,-195c69,-40 187,-75 278,-82c204,-16 384,78 465,243c23,48 29,73 31,148c4,98 -7,141 -83,354c-35,99 -37,114 -51,318c-7,117 -17,226 -20,241c-4,15 -28,68 -54,117c-26,50 -53,113 -59,140c-6,28 -18,165 -26,305c-19,295 -29,344 -85,400c-58,58 -128,74 -190,42zm122,-83c11,-6 29,-31 40,-56c17,-39 21,-79 29,-282c8,-209 16,-283 44,-394l8,-29l-49,9c-80,13 -195,6 -257,-16c-31,-11 -57,-16 -57,-11c0,5 7,35 15,67c10,37 19,145 26,298c10,245 17,292 50,357c30,59 99,85 151,57z"/>
  </g>
  <line stroke-linecap="undefined" stroke-linejoin="undefined" id="svg_6" y2="464.666667" x2="71.333333" y1="8.666667" x1="71.333333" stroke-width="1.5" stroke="#000" fill="none"/>
  <path id="svg_7" stroke-width="1.5" stroke="#000" fill="#fff"/>
 </g>
</svg>