<?xml version="1.0" standalone="no"?>
<!DOCTYPE>
<svg version="1.0" xmlns="http://www.w3.org/2000/svg"
 width="600.000000pt" height="600.000000pt" viewBox="0 0 600.000000 600.000000"
 preserveAspectRatio="xMidYMid meet">
</metadata>
<g transform="translate(0.000000,600.000000) scale(0.100000,-0.100000)"
fill="#000000" stroke="none">
<path d="M684 5937 c-2 -7 -3 -1057 -1 -2333 2 -1752 6 -2338 15 -2396 64
-406 230 -624 541 -711 72 -20 106 -21 676 -27 573 -6 604 -7 678 -28 171 -47
295 -141 362 -274 19 -39 35 -77 35 -84 0 -8 5 -14 10 -14 6 0 10 6 10 14 0 7
16 45 35 84 67 133 191 227 362 274 74 21 105 22 678 28 570 6 604 7 676 27
315 88 485 316 541 726 10 72 13 601 13 2407 l0 2315 -2313 3 c-1892 2 -2314
0 -2318 -11z m4593 -2349 c-2 -2169 -4 -2329 -20 -2418 -55 -295 -175 -483
-369 -578 -156 -77 -133 -74 -798 -82 -629 -8 -649 -9 -777 -58 -122 -47 -225
-133 -278 -235 -17 -31 -32 -57 -35 -57 -3 0 -18 26 -35 57 -53 102 -156 188
-278 235 -128 49 -148 50 -777 58 -665 8 -642 5 -798 82 -194 95 -314 283
-369 578 -16 89 -18 249 -20 2418 l-3 2322 2280 0 2280 0 -3 -2322z"/>
<path d="M1882 5440 c-39 -24 -87 -97 -108 -165 -9 -27 -29 -153 -45 -280 -32
-257 -39 -293 -81 -450 -27 -102 -30 -129 -38 -360 l-8 -250 -47 -150 c-41
-131 -47 -162 -49 -245 -1 -85 2 -101 27 -152 78 -159 279 -255 514 -246 93 4
109 8 176 41 94 46 166 117 209 204 30 63 33 75 33 163 -1 89 -4 105 -58 260
-62 176 -60 168 -86 515 -10 129 -10 131 -60 226 -27 52 -54 114 -61 138 -6
24 -20 168 -29 320 -20 295 -29 340 -84 400 -48 52 -145 67 -205 31z m155 -95
c31 -35 43 -86 43 -180 0 -166 20 -401 40 -479 11 -44 20 -80 20 -82 0 -1 -17
2 -37 7 -68 16 -203 10 -263 -11 -30 -11 -58 -19 -62 -20 -4 0 0 21 8 48 10
30 19 122 25 252 14 291 22 362 51 418 41 81 125 104 175 47z"/>
<path d="M3895 5428 c-78 -68 -104 -152 -144 -473 -21 -163 -44 -291 -71 -399
-39 -155 -40 -164 -40 -332 0 -215 -11 -295 -62 -454 -37 -112 -41 -136 -42
-230 -1 -95 1 -110 25 -155 33 -63 119 -145 188 -180 170 -86 399 -87 544 -2
60 36 145 130 176 197 21 47 25 69 24 145 -1 96 -9 130 -82 336 -40 113 -41
120 -52 310 -12 222 -23 279 -73 367 -61 109 -67 136 -87 437 -10 154 -23 295
-29 314 -27 94 -99 151 -189 151 -42 0 -56 -5 -86 -32z m172 -82 c28 -33 43
-107 43 -219 1 -161 18 -370 38 -444 11 -40 18 -74 15 -76 -2 -3 -21 -1 -41 4
-66 15 -186 10 -253 -11 -35 -10 -64 -18 -65 -17 -1 1 6 36 15 77 13 52 20
139 25 285 8 232 18 303 50 361 40 73 126 92 173 40z"/>
<path d="M2910 3222 c-48 -24 -92 -86 -118 -165 -14 -42 -34 -162 -52 -312
-22 -176 -41 -288 -70 -400 -37 -144 -40 -165 -40 -293 0 -228 -14 -343 -61
-488 -50 -159 -62 -289 -34 -373 20 -61 103 -156 169 -195 69 -40 187 -75 278
-82 204 -16 384 78 465 243 23 48 29 73 31 148 4 98 -7 141 -83 354 -35 99
-37 114 -51 318 -7 117 -17 226 -20 241 -4 15 -28 68 -54 117 -26 50 -53 113
-59 140 -6 28 -18 165 -26 305 -19 295 -29 344 -85 400 -58 58 -128 74 -190
42z m122 -83 c11 -6 29 -31 40 -56 17 -39 21 -79 29 -282 8 -209 16 -283 44
-394 l8 -29 -49 9 c-80 13 -195 6 -257 -16 -31 -11 -57 -16 -57 -11 0 5 7 35
15 67 10 37 19 145 26 298 10 245 17 292 50 357 30 59 99 85 151 57z"/>
</g>
</svg>
